<svg width="32" height="32" viewBox="0 0 32 32" fill="none" xmlns="http://www.w3.org/2000/svg">
<g clip-path="url(#clip0_1_55)">
<path d="M16 0C12.8355 0 9.74207 0.938383 7.11088 2.69649C4.4797 4.45459 2.42894 6.95345 1.21793 9.87706C0.00693252 12.8007 -0.309921 16.0177 0.307443 19.1214C0.924806 22.2251 2.44866 25.0761 4.6863 27.3137C6.92394 29.5513 9.77486 31.0752 12.8786 31.6926C15.9823 32.3099 19.1993 31.9931 22.1229 30.7821C25.0466 29.5711 27.5454 27.5203 29.3035 24.8891C31.0616 22.2579 32 19.1645 32 16C32 11.7565 30.3143 7.68687 27.3137 4.68629C24.3131 1.68571 20.2435 0 16 0ZM16 25.8784C13.8579 25.8784 11.8035 25.0275 10.2888 23.5128C8.77415 21.9981 7.92321 19.9437 7.92321 17.8016H24.0768C24.0768 19.9437 23.2259 21.9981 21.7112 23.5128C20.1965 25.0275 18.1421 25.8784 16 25.8784Z" fill="#1E63FF"/>
</g>
<defs>
<clipPath id="clip0_1_55">
<rect width="32" height="32" fill="white"/>
</clipPath>
</defs>
</svg>
