<svg width="663" height="100" viewBox="0 0 663 100" fill="none" xmlns="http://www.w3.org/2000/svg">
<path d="M132 88.3996V11.5996H162.45C167.637 11.5996 171.897 12.6396 175.23 14.7196C178.399 16.6418 180.966 19.4132 182.64 22.7196C184.223 25.8161 185.056 29.2418 185.07 32.7196C185.194 36.5318 184.147 40.2903 182.07 43.4896C180.142 46.3969 177.242 48.5236 173.89 49.4896V46.7996C178.289 47.6348 182.214 50.0899 184.89 53.6796C187.388 57.1361 188.706 61.3053 188.65 65.5696C188.751 69.7206 187.856 73.8354 186.04 77.5696C184.317 80.9564 181.613 83.7446 178.28 85.5696C174.357 87.604 169.977 88.5957 165.56 88.4496L132 88.3996ZM145 42.2696H162.28C164.007 42.3036 165.718 41.9374 167.28 41.1996C168.719 40.51 169.925 39.4152 170.75 38.0496C171.636 36.493 172.069 34.7195 172 32.9296C172.037 31.7052 171.829 30.4857 171.39 29.3422C170.95 28.1988 170.287 27.1543 169.44 26.2696C168.5 25.3514 167.378 24.6396 166.147 24.1798C164.916 23.72 163.602 23.5224 162.29 23.5996H145V42.2696ZM145 76.2696H164C166.08 76.3029 168.138 75.8365 170 74.9096C171.733 74.0538 173.187 72.7218 174.19 71.0696C175.237 69.2869 175.764 67.2464 175.71 65.1796C175.737 63.2475 175.28 61.3394 174.38 59.6296C173.474 57.9823 172.123 56.6237 170.48 55.7096C168.6 54.6945 166.486 54.1911 164.35 54.2496H145V76.2696Z" fill="#0F172A"/>
<path d="M209 90.0009C205.336 90.1159 201.703 89.3005 198.44 87.6309C195.707 86.1881 193.441 83.9957 191.91 81.3109C190.426 78.6535 189.665 75.6541 189.7 72.6109C189.661 70.0476 190.13 67.5019 191.08 65.1209C192.02 62.8855 193.484 60.9096 195.35 59.3609C197.567 57.5703 200.101 56.2133 202.82 55.3609C205.487 54.5296 208.202 53.8617 210.95 53.3609C214.057 52.7609 217.433 52.2009 221.08 51.6809C224.727 51.1609 228.543 50.6009 232.53 50.0009L228 52.6109C228 48.6109 227.11 45.6775 225.33 43.8109C223.55 41.9442 220.477 41.0075 216.11 41.0009C213.496 41.0021 210.919 41.6224 208.59 42.8109C207.366 43.441 206.285 44.3154 205.413 45.3801C204.541 46.4448 203.897 47.6772 203.52 49.0009L191.79 45.3209C193.102 40.6071 195.967 36.474 199.92 33.5909C203.92 30.6375 209.317 29.1609 216.11 29.1609C220.74 29.0699 225.341 29.924 229.63 31.6709C233.426 33.2524 236.508 36.1744 238.29 39.8809C239.295 41.8162 239.929 43.9224 240.16 46.0909C240.367 48.2109 240.473 50.5142 240.48 53.0009V88.4009H229.23V75.9209L231.09 77.9209C228.895 81.7054 225.765 84.8629 222 87.0909C217.988 89.1592 213.511 90.1613 209 90.0009ZM211.56 79.7609C214.127 79.8279 216.674 79.2973 219 78.2109C220.917 77.3218 222.622 76.0329 224 74.4309C225.083 73.1915 225.924 71.7601 226.48 70.2109C227.191 68.4199 227.581 66.5173 227.63 64.5909C227.72 62.4709 227.76 60.7609 227.76 59.4409L231.76 60.6109C227.88 61.2175 224.547 61.7509 221.76 62.2109C218.98 62.6809 216.6 63.1109 214.61 63.5209C212.826 63.8759 211.063 64.3299 209.33 64.8809C207.991 65.3374 206.717 65.966 205.54 66.7509C204.583 67.3878 203.775 68.2234 203.17 69.2009C202.603 70.1885 202.316 71.3122 202.34 72.4509C202.314 73.7829 202.686 75.0923 203.41 76.2109C204.183 77.3526 205.265 78.2509 206.53 78.8009C208.121 79.4805 209.84 79.808 211.57 79.7609H211.56Z" fill="#0F172A"/>
<path d="M270.18 89.9996C263.067 89.9996 257.29 88.3996 252.85 85.1996C250.653 83.6194 248.801 81.6084 247.407 79.2891C246.013 76.9699 245.105 74.391 244.74 71.7096L257.86 69.7096C258.457 72.4327 260.056 74.8316 262.34 76.4296C264.926 78.1467 267.988 79.004 271.09 78.8796C274.183 78.8796 276.573 78.2663 278.26 77.0396C279.066 76.4836 279.721 75.7351 280.165 74.8619C280.608 73.9888 280.827 73.0186 280.8 72.0396C280.855 70.9069 280.524 69.7891 279.86 68.8696C279.24 68.0696 277.88 67.2963 275.78 66.5496C273.68 65.8029 270.463 64.8596 266.13 63.7196C262.154 62.7583 258.291 61.3737 254.61 59.5896C252.129 58.4265 250.011 56.612 248.48 54.3396C247.179 52.1102 246.531 49.5598 246.61 46.9796C246.536 43.6289 247.526 40.3411 249.44 37.5896C251.435 34.8316 254.17 32.6956 257.33 31.4296C261.127 29.9111 265.192 29.1764 269.28 29.2696C273.35 29.1949 277.396 29.9009 281.2 31.3496C284.451 32.5897 287.339 34.6251 289.6 37.2696C291.735 39.8383 293.101 42.9582 293.54 46.2696L280.42 48.6196C280.3 47.4728 279.941 46.3638 279.368 45.3634C278.794 44.363 278.019 43.4932 277.09 42.8096C274.853 41.2692 272.206 40.4333 269.49 40.4096C266.972 40.1278 264.428 40.6012 262.18 41.7696C261.335 42.1906 260.626 42.8423 260.136 43.6492C259.646 44.4562 259.394 45.3855 259.41 46.3296C259.4 46.8505 259.494 47.3682 259.686 47.8524C259.878 48.3366 260.165 48.7776 260.53 49.1496C261.84 50.223 263.364 51.0038 265 51.4396C267.253 52.2196 270.62 53.1796 275.1 54.3196C278.916 55.2001 282.61 56.5434 286.1 58.3196C288.557 59.5403 290.632 61.4115 292.1 63.7296C293.413 66.0646 294.07 68.7116 294 71.3896C294 77.1829 291.893 81.7329 287.68 85.0396C283.467 88.3463 277.633 89.9996 270.18 89.9996Z" fill="#0F172A"/>
<path d="M324.74 89.9995C319.447 90.1204 314.225 88.7741 309.65 86.1095C305.372 83.5383 301.906 79.8122 299.65 75.3595C297.208 70.4713 295.989 65.0629 296.1 59.5995C295.978 54.0842 297.225 48.6246 299.73 43.7095C302.025 39.2691 305.517 35.5593 309.81 32.9995C314.422 30.4721 319.598 29.1515 324.856 29.1602C330.115 29.1689 335.287 30.5068 339.89 33.0495C344.159 35.6326 347.622 39.3555 349.89 43.7995C352.344 48.6845 353.569 54.0941 353.46 59.5595C353.572 65.0448 352.336 70.4737 349.86 75.3695C347.581 79.8141 344.098 83.5286 339.81 86.0895C335.24 88.7502 330.027 90.1029 324.74 89.9995ZM324.74 77.9995C329.86 77.9995 333.667 76.2929 336.16 72.8795C338.653 69.4662 339.897 65.0562 339.89 59.6495C339.89 54.0695 338.627 49.6162 336.1 46.2895C333.573 42.9629 329.787 41.2962 324.74 41.2895C321.735 41.1678 318.766 41.9781 316.24 43.6095C313.985 45.1906 312.262 47.4188 311.3 49.9995C310.182 53.0639 309.64 56.3083 309.7 59.5695C309.7 65.1495 310.973 69.6029 313.52 72.9295C316.067 76.2562 319.807 77.9462 324.74 77.9995Z" fill="#0F172A"/>
<path d="M404.85 90C397.197 90 390.743 88.3033 385.49 84.91C380.205 81.485 376.048 76.5768 373.54 70.8C370.728 64.233 369.347 57.1423 369.49 50C369.347 42.8577 370.728 35.767 373.54 29.2C376.048 23.4232 380.205 18.515 385.49 15.09C390.75 11.6967 397.203 10 404.85 10C413.77 10 421.057 12.2833 426.71 16.85C432.461 21.5677 436.539 28.0127 438.34 35.23L430.34 37.31C428.985 31.6909 425.908 26.6354 421.54 22.85C417.307 19.2967 411.743 17.52 404.85 17.52C398.85 17.52 393.85 18.89 389.85 21.63C385.782 24.4662 382.649 28.4484 380.85 33.07C378.761 38.468 377.709 44.2119 377.75 50C377.622 55.7796 378.642 61.5271 380.75 66.91C382.572 71.5384 385.729 75.5205 389.82 78.35C393.86 81.1033 398.883 82.48 404.89 82.48C411.79 82.48 417.353 80.6933 421.58 77.12C425.939 73.3394 429.015 68.2965 430.38 62.69L438.38 64.77C436.579 71.9873 432.501 78.4323 426.75 83.15C421.077 87.7167 413.777 90 404.85 90Z" fill="#0F172A"/>
<path d="M444.74 88.4V10H452.58V88.4H444.74Z" fill="#0F172A"/>
<path d="M463.25 19.8703V11.0703H471.09V19.8703H463.25ZM463.25 88.4003V30.8003H471.09V88.4003H463.25Z" fill="#0F172A"/>
<path d="M504.58 90.0008C499.399 90.166 494.283 88.814 489.86 86.1108C485.826 83.497 482.646 79.7601 480.71 75.3608C478.547 70.3902 477.45 65.0214 477.49 59.6008C477.441 54.1194 478.566 48.6911 480.79 43.6808C482.756 39.3011 485.957 35.5896 490 33.0008C494.569 30.4275 499.739 29.1141 504.982 29.1949C510.225 29.2757 515.353 30.7479 519.84 33.4608C524.079 36.1918 527.222 40.3263 528.72 45.1408L521.04 47.5908C519.804 44.3073 517.551 41.5045 514.61 39.5908C511.507 37.7153 507.948 36.729 504.322 36.7396C500.696 36.7502 497.142 37.7573 494.05 39.6508C491.224 41.6612 489.07 44.4772 487.87 47.7308C486.448 51.5316 485.743 55.563 485.79 59.6208C485.857 66.5208 487.457 72.0575 490.59 76.2308C493.723 80.4041 498.39 82.4941 504.59 82.5008C508.115 82.603 511.592 81.6676 514.59 79.8108C517.437 77.8921 519.626 75.1447 520.86 71.9408L528.75 74.2908C526.899 79.0697 523.616 83.1597 519.35 86.0008C514.929 88.7613 509.79 90.153 504.58 90.0008Z" fill="#0F172A"/>
<path d="M533.27 88.3996L533.32 11.5996H541.22V58.5296L566.92 30.7996H577.38L550.38 59.5996L580.9 88.3996H569.48L541.22 60.6696V88.3996H533.27Z" fill="#0F172A"/>
<path d="M603.14 90.0006C598.025 90.1332 592.974 88.8418 588.55 86.2705C584.425 83.7551 581.11 80.1069 579 75.7606C576.623 70.8076 575.451 65.3628 575.58 59.8706C575.437 54.2452 576.587 48.662 578.94 43.5506C580.998 39.1657 584.289 35.4754 588.41 32.9306C592.779 30.3674 597.776 29.0756 602.84 29.2006C607.973 29.0511 613.036 30.4143 617.4 33.1206C621.508 35.8531 624.688 39.7694 626.52 44.3506C628.695 49.8958 629.656 55.8425 629.34 61.7906H621.34V59.0006C621.2 51.5406 619.593 45.9072 616.52 42.1006C613.447 38.2939 608.94 36.3939 603 36.4006C596.813 36.4006 592.077 38.4006 588.79 42.4006C585.503 46.4006 583.867 52.1339 583.88 59.6006C583.88 66.8472 585.527 72.4739 588.82 76.4806C592.113 80.4872 596.78 82.4872 602.82 82.4806C606.617 82.5673 610.36 81.5793 613.62 79.6306C616.777 77.6279 619.302 74.7706 620.9 71.3906L628.2 74.2106C626.104 79.0225 622.6 83.0874 618.15 85.8706C613.641 88.645 608.434 90.0776 603.14 90.0006ZM581.14 61.7906V55.2306H625.14V61.7906H581.14Z" fill="#0F172A"/>
<path d="M634.71 88.3991V30.7991H641.71V44.6691L640.32 42.8491C640.947 41.173 641.791 39.5862 642.83 38.1291C643.766 36.7874 644.899 35.594 646.19 34.5891C647.72 33.2564 649.497 32.2371 651.42 31.5891C653.354 30.9085 655.373 30.498 657.42 30.3691C659.282 30.225 661.155 30.3769 662.97 30.8191V38.1791C660.718 37.6375 658.387 37.5121 656.09 37.8091C653.553 38.1178 651.162 39.1605 649.21 40.8091C647.404 42.2224 645.96 44.0462 645 46.1291C644.007 48.2238 643.333 50.4551 643 52.7491C642.683 55.0355 642.523 57.3409 642.52 59.6491V88.3991H634.71Z" fill="#0F172A"/>
<path d="M50 0C40.1109 0 30.444 2.93245 22.2215 8.42652C13.9991 13.9206 7.59043 21.7295 3.80604 30.8658C0.0216641 40.0021 -0.968502 50.0555 0.960758 59.7545C2.89002 69.4536 7.65206 78.3627 14.6447 85.3553C21.6373 92.3479 30.5464 97.11 40.2455 99.0392C49.9445 100.968 59.9979 99.9783 69.1342 96.194C78.2705 92.4096 86.0794 86.0009 91.5735 77.7785C97.0676 69.556 100 59.8891 100 50C100 36.7392 94.7322 24.0215 85.3553 14.6447C75.9785 5.26784 63.2608 0 50 0ZM50 80.87C43.306 80.87 36.8861 78.2108 32.1526 73.4774C27.4192 68.7439 24.76 62.3241 24.76 55.63H75.24C75.24 62.3241 72.5808 68.7439 67.8474 73.4774C63.114 78.2108 56.6941 80.87 50 80.87Z" fill="#1E63FF"/>
</svg>
