<svg width="360" height="360" viewBox="0 0 360 360" fill="none" xmlns="http://www.w3.org/2000/svg">
<path d="M180 0C144.399 0 109.598 10.5568 79.9974 30.3355C50.3966 50.1141 27.3255 78.2263 13.7018 111.117C0.0779909 144.008 -3.48661 180.2 3.45873 215.116C10.4041 250.033 27.5474 282.106 52.7208 307.279C77.8943 332.453 109.967 349.596 144.884 356.541C179.8 363.487 215.992 359.922 248.883 346.298C281.774 332.674 309.886 309.603 329.665 280.003C349.443 250.402 360 215.601 360 180C360 132.261 341.036 86.4773 307.279 52.7208C273.523 18.9642 227.739 0 180 0ZM180 291.132C155.901 291.132 132.79 281.559 115.75 264.518C98.7092 247.478 89.1361 224.367 89.1361 200.268H270.864C270.864 224.367 261.291 247.478 244.251 264.518C227.21 281.559 204.099 291.132 180 291.132Z" fill="#F9FFFE"/>
</svg>
